<svg width="91" height="95" viewBox="0 0 91 95" fill="none" xmlns="http://www.w3.org/2000/svg">
<path fill-rule="evenodd" clip-rule="evenodd" d="M9.79058 40.0369L7.777 36.6196V79.5794L6.90049 79.5793L6.90036 81.016L5.87166 81.0158L5.8712 82.976L19.9076 82.9792L19.908 81.0189L18.8681 81.0187L18.8682 79.5803L18.009 79.5803L18.009 53.9842L10.265 40.842L10.0857 79.5796L9.05479 79.5795L9.23649 39.1034L9.79058 40.0369ZM13.449 79.5799L12.3773 79.5798L12.3514 44.3833L13.3935 46.1528L13.449 79.5799ZM16.5342 79.5801L15.497 79.5801V49.7231L16.5342 51.482V79.5801Z" fill="white"/>
<path fill-rule="evenodd" clip-rule="evenodd" d="M25.5866 66.5592L24.1303 64.1055V79.8593L33.4684 79.8391L33.0152 79.0756V79.5793L31.9779 79.5809V77.3279L29.7496 73.5734L29.8035 79.6083L28.731 79.6092L28.698 71.8015L26.6148 68.2915L26.4359 79.6088L25.4051 79.604L25.5866 66.5592Z" fill="white"/>
<path d="M23.1294 79.5806L33.3061 79.5793L34.3176 81.278L23.1297 81.2795L23.1294 79.5806Z" fill="white"/>
<path d="M22.0854 81.0157L34.1609 81.0184L35.3175 82.9789L22.0849 82.976L22.0854 81.0157Z" fill="white"/>
<path fill-rule="evenodd" clip-rule="evenodd" d="M80.8249 40.0369L82.8385 36.6196V79.5794L83.715 79.5793L83.7151 81.016L84.7438 81.0158L84.7443 82.976L70.7079 82.9792L70.7075 81.0189L71.7474 81.0187L71.7472 79.5803L72.6065 79.5803L72.6065 53.9842L80.3505 40.842L80.5298 79.5796L81.5607 79.5795L81.379 39.1034L80.8249 40.0369ZM77.1665 79.5799L78.2382 79.5798L78.2641 44.3833L77.222 46.1528L77.1665 79.5799ZM74.0813 79.5801L75.1185 79.5801V49.7215L74.0813 51.4823V79.5801Z" fill="white"/>
<path fill-rule="evenodd" clip-rule="evenodd" d="M65.0288 66.5592L66.4851 64.1055V79.8593L57.1471 79.8391L57.6003 79.0756V79.5793L58.6376 79.5809V77.3279L60.8659 73.5734L60.812 79.6083L61.8844 79.6092L61.9175 71.8015L64.0007 68.2915L64.1796 79.6088L65.2104 79.604L65.0288 66.5592Z" fill="white"/>
<path d="M67.486 79.5806L57.3093 79.5793L56.2979 81.278L67.4858 81.2795L67.486 79.5806Z" fill="white"/>
<path d="M68.5301 81.0157L56.4546 81.0184L55.298 82.9789L68.5306 82.976L68.5301 81.0157Z" fill="white"/>
<path d="M7.45428 25.4009L19.231 25.4019L19.2308 27.1123L7.45413 27.1113L7.45428 25.4009Z" fill="#34495F"/>
<path d="M83.1252 27.1118L71.353 27.1124L71.3529 25.402L83.1251 25.4014L83.1252 27.1118Z" fill="#34495F"/>
<path d="M4.73195 84.2084L36.1454 84.2084L37.6689 86.8397L4.73171 86.8397L4.73195 84.2084Z" fill="white"/>
<path d="M85.8205 84.2088L55.2582 84.2088L53.7289 86.8402L85.8208 86.8402L85.8205 84.2088Z" fill="white"/>
<path d="M2.8304 17.7612L87.8661 17.7619L87.866 20.6564L2.83037 20.6557L2.8304 17.7612Z" fill="white"/>
<path fill-rule="evenodd" clip-rule="evenodd" d="M45.3077 0L0.23732 15.493H90.3782L45.3077 0ZM45.3919 1.91394C45.291 1.87889 45.1808 1.87889 45.08 1.91394L11.8012 13.5305H78.1292L45.3919 1.91394Z" fill="white"/>
<path fill-rule="evenodd" clip-rule="evenodd" d="M44.4494 2.84503C44.549 2.80752 44.658 2.80752 44.7578 2.84503L70.6599 12.676H18.5472L44.4494 2.84503Z" fill="white"/>
<path fill-rule="evenodd" clip-rule="evenodd" d="M53.4295 87.3237H88.9697V91.5491H50.9416L53.4295 87.3237Z" fill="white"/>
<path fill-rule="evenodd" clip-rule="evenodd" d="M1.64577 87.3237H38.5518L41.0824 91.5491H1.64577V87.3237Z" fill="white"/>
<path fill-rule="evenodd" clip-rule="evenodd" d="M4.46268 25.3521H21.0739L46.0163 67.5872L70.9586 25.3521L86.1528 25.3521L46.0163 94.3661L4.46268 25.3521Z" fill="white"/>
<path fill-rule="evenodd" clip-rule="evenodd" d="M36.7099 25.3521L46.0078 39.9843L55.4836 25.3521H66.4345L46.1112 60.5633L25.5894 25.3521H36.7099Z" fill="white"/>
</svg>